<?xml version="1.0" encoding="UTF-8"?>
<svg width="229px" height="40px" viewBox="0 0 229 40" version="1.1" xmlns="http://www.w3.org/2000/svg" xmlns:xlink="http://www.w3.org/1999/xlink">
    <title>logo-dark</title>
    <g id="logo-dark" stroke="none" stroke-width="1" fill="none" fill-rule="evenodd">
        <g id="plone-logo" fill="#0095D3" fill-rule="nonzero">
            <ellipse id="Oval" cx="17.4998705" cy="11.5" rx="4.49996669" ry="4.5"></ellipse>
            <path d="M30.9997705,20.4984675 C30.9997705,22.9901133 28.9860354,25 26.4998038,25 C24.014595,25 21.9998372,22.9849991 21.9998372,20.4984675 C21.9998372,18.0098902 24.0227767,16 26.4998038,16 C28.9870582,15.996935 30.9997705,18.0119359 30.9997705,20.4984675 Z" id="Path"></path>
            <ellipse id="Oval" cx="17.4998705" cy="28.5" rx="4.49996669" ry="4.5"></ellipse>
            <path d="M19.999852,0 C8.95436522,0.000983139163 0.000983131886,8.95344836 0,20 C0.000983131886,31.0445854 8.95141582,39.9980337 19.999852,40 C31.0453387,39.9980337 39.9977376,31.0495011 39.9997039,20 C39.9977376,8.95344836 31.0453387,0.000983139163 19.999852,0 Z M31.2557289,31.2559603 C28.3672874,34.1404906 24.3974009,35.9180062 19.9978857,35.9189893 C15.594438,35.9180062 11.6284839,34.1375412 8.7410256,31.2559603 C5.85749978,28.3674974 4.07999733,24.3975815 4.07901419,20 C4.07999733,15.5975028 5.85946604,11.6305363 8.74200873,8.74305658 C11.6304502,5.85852627 15.5964042,4.08101067 19.9988688,4.08002753 C24.4013334,4.08101067 28.3682706,5.86147569 31.2557289,8.74305658 C34.141221,11.6315194 35.9177403,15.6014354 35.9197066,20 C35.9187235,24.4005309 34.1402379,28.3674974 31.2557289,31.2559603 Z" id="Shape"></path>
        </g>
        <path d="M54.3991406,29.3144531 C58.3229688,29.3144531 60.6745313,27.2089844 61.0846875,23.9277344 L61.0983594,23.8457031 L57.4069531,23.8457031 L57.3796094,23.9003906 C57.0241406,25.4042969 56.0534375,26.1835938 54.4128125,26.1835938 C52.28,26.1835938 51.0905469,24.5019531 51.0905469,21.453125 L51.0905469,21.4257812 C51.0905469,18.4179688 52.2663281,16.75 54.4128125,16.75 C56.1217969,16.75 57.1198438,17.7070312 57.3796094,19.1699219 L57.3932813,19.1972656 L61.1120313,19.1972656 L61.1120313,19.15625 C60.7565625,15.7929688 58.3913281,13.6191406 54.3991406,13.6191406 C49.6823438,13.6191406 47.03,16.4765625 47.03,21.4257812 L47.03,21.453125 C47.03,26.4570312 49.6960156,29.3144531 54.3991406,29.3144531 Z M68.6921094,29.3144531 C70.8385938,29.3144531 72.3698438,28.3164062 73.0534375,26.6757812 L73.2995313,26.6757812 L73.2995313,29 L77.2917188,29 L77.2917188,13.9472656 L73.2995313,13.9472656 L73.2995313,22.6425781 C73.2995313,24.6796875 72.233125,26.0058594 70.264375,26.0058594 C68.3776563,26.0058594 67.5710156,24.8984375 67.5710156,22.765625 L67.5710156,13.9472656 L63.5788281,13.9472656 L63.5788281,23.6816406 C63.5788281,27.2636719 65.3151563,29.3144531 68.6921094,29.3144531 Z M86.7721875,29.3144531 C90.6276563,29.3144531 93.3757031,27.3730469 93.3757031,24.3925781 L93.3757031,24.3789062 C93.3757031,22.1503906 91.9675,20.8925781 88.9596875,20.25 L86.4577344,19.7167969 C84.8991406,19.375 84.3385938,18.9101562 84.3385938,18.1035156 L84.3385938,18.0898438 C84.3385938,17.078125 85.3229688,16.4355469 86.7038281,16.4355469 C88.1940625,16.4355469 89.0827344,17.1875 89.3014844,17.9941406 L89.3151563,18.0625 L93.0202344,18.0625 L93.0202344,18.0078125 C92.8561719,15.5878906 90.6686719,13.6191406 86.7175,13.6191406 C82.9577344,13.6191406 80.4421094,15.5058594 80.4421094,18.3359375 L80.4421094,18.3496094 C80.4421094,20.6054688 81.8639844,22.0136719 84.7350781,22.6289062 L87.2507031,23.1621094 C88.7819531,23.5039062 89.3835156,24.0097656 89.3835156,24.8164062 L89.3835156,24.84375 C89.3835156,25.8417969 88.3444531,26.4980469 86.8132031,26.4980469 C85.2409375,26.4980469 84.3249219,25.828125 84.0104688,24.8984375 L83.983125,24.84375 L80.0592969,24.84375 L80.0729688,24.8984375 C80.3600781,27.4824219 82.6842969,29.3144531 86.7721875,29.3144531 Z M97.5241406,34.3046875 C101.242891,34.3046875 103.225313,32.9648438 104.565156,28.9863281 L109.692109,13.9472656 L105.481172,13.9472656 L102.322969,25.3496094 L102.049531,25.3496094 L98.8913281,13.9472656 L94.5026563,13.9472656 L99.7936719,29 L99.6569531,29.5742188 C99.3698438,30.75 98.5495313,31.296875 97.1276563,31.296875 C96.7585156,31.296875 96.3620313,31.2832031 96.0885938,31.2558594 L96.0885938,34.2636719 C96.5534375,34.2910156 97.0592969,34.3046875 97.5241406,34.3046875 Z M112.815156,33.9902344 L118.502656,8.19140625 L114.824922,8.19140625 L109.137422,33.9902344 L112.815156,33.9902344 Z" id="cusy" fill="#FFFFFF" fill-rule="nonzero"></path>
        <path d="M123.992188,33.990234 L123.992188,26.5937496 L124.238281,26.5937496 C125.003906,28.2343746 126.685547,29.2324215 128.75,29.2324215 C132.564453,29.2324215 134.861328,26.3203121 134.861328,21.4804684 L134.861328,21.4531246 C134.861328,16.6542965 132.509766,13.7011715 128.75,13.7011715 C126.617188,13.7011715 125.017578,14.6582027 124.238281,16.271484 L123.992188,16.271484 L123.992188,13.9472652 L120,13.9472652 L120,33.990234 L123.992188,33.990234 Z M127.382812,25.9238277 C125.291016,25.9238277 123.951172,24.2421871 123.951172,21.4804684 L123.951172,21.4531246 C123.951172,18.6914059 125.277344,17.0097652 127.382812,17.0097652 C129.501953,17.0097652 130.800781,18.6914059 130.800781,21.4531246 L130.800781,21.4804684 C130.800781,24.2421871 129.488281,25.9238277 127.382812,25.9238277 Z M141.744141,28.9999996 L141.744141,8.19140587 L137.751953,8.19140587 L137.751953,28.9999996 L141.744141,28.9999996 Z M152.058594,29.3144527 C156.693359,29.3144527 159.482422,26.3886715 159.482422,21.4804684 L159.482422,21.4531246 C159.482422,16.5859371 156.652344,13.6191402 152.058594,13.6191402 C147.464844,13.6191402 144.634766,16.599609 144.634766,21.4531246 L144.634766,21.4804684 C144.634766,26.3749996 147.423828,29.3144527 152.058594,29.3144527 Z M152.058594,26.1835934 C149.925781,26.1835934 148.722656,24.4472652 148.722656,21.4804684 L148.722656,21.4531246 C148.722656,18.5136715 149.939453,16.7499996 152.058594,16.7499996 C154.164062,16.7499996 155.394531,18.5136715 155.394531,21.4531246 L155.394531,21.4804684 C155.394531,24.4472652 154.177734,26.1835934 152.058594,26.1835934 Z M166.214844,28.9999996 L166.214844,20.2910152 C166.214844,18.2539059 167.335938,16.927734 169.181641,16.927734 C171.068359,16.927734 171.943359,18.0488277 171.943359,20.1679684 L171.943359,28.9999996 L175.935547,28.9999996 L175.935547,19.2656246 C175.935547,15.6699215 174.130859,13.6191402 170.78125,13.6191402 C168.634766,13.6191402 167.144531,14.6445309 166.460938,16.271484 L166.214844,16.271484 L166.214844,13.9472652 L162.222656,13.9472652 L162.222656,28.9999996 L166.214844,28.9999996 Z M185.908203,29.3144527 C190.310547,29.3144527 192.251953,26.771484 192.716797,24.8847652 L192.744141,24.7480465 L189.025391,24.7480465 L188.984375,24.8300777 C188.710938,25.4042965 187.740234,26.333984 185.990234,26.333984 C183.871094,26.333984 182.544922,24.8984371 182.503906,22.4238277 L192.867188,22.4238277 L192.867188,21.1796871 C192.867188,16.6269527 190.132812,13.6191402 185.744141,13.6191402 C181.355469,13.6191402 178.552734,16.6953121 178.552734,21.4804684 L178.552734,21.4941402 C178.552734,26.3203121 181.328125,29.3144527 185.908203,29.3144527 Z M189.039062,19.9218746 L182.544922,19.9218746 C182.791016,17.7890621 184.076172,16.6132809 185.8125,16.6132809 C187.548828,16.6132809 188.792969,17.7343746 189.039062,19.9218746 Z M204.958984,22.833984 L204.958984,19.2382809 L195.867188,19.2382809 L195.867188,22.833984 L204.958984,22.833984 Z M210.707031,11.6367184 C211.9375,11.6367184 212.949219,10.6523434 212.949219,9.42187462 C212.949219,8.177734 211.9375,7.193359 210.707031,7.193359 C209.476562,7.193359 208.451172,8.177734 208.451172,9.42187462 C208.451172,10.6523434 209.476562,11.6367184 210.707031,11.6367184 Z M207.357422,34.1269527 C210.84375,34.1269527 212.703125,32.568359 212.703125,29.4921871 L212.703125,13.9472652 L208.710938,13.9472652 L208.710938,29.3828121 C208.710938,30.6269527 208.164062,31.0917965 206.796875,31.0917965 C206.619141,31.0917965 206.441406,31.0917965 206.291016,31.0781246 L206.291016,34.0859371 C206.523438,34.099609 207.001953,34.1269527 207.357422,34.1269527 Z M222.210938,29.3144527 C226.066406,29.3144527 228.814453,27.3730465 228.814453,24.3925777 L228.814453,24.3789059 C228.814453,22.1503902 227.40625,20.8925777 224.398438,20.2499996 L221.896484,19.7167965 C220.337891,19.3749996 219.777344,18.9101559 219.777344,18.1035152 L219.777344,18.0898434 C219.777344,17.0781246 220.761719,16.4355465 222.142578,16.4355465 C223.632812,16.4355465 224.521484,17.1874996 224.740234,17.9941402 L224.753906,18.0624996 L228.458984,18.0624996 L228.458984,18.0078121 C228.294922,15.5878902 226.107422,13.6191402 222.15625,13.6191402 C218.396484,13.6191402 215.880859,15.505859 215.880859,18.3359371 L215.880859,18.349609 C215.880859,20.6054684 217.302734,22.0136715 220.173828,22.6289059 L222.689453,23.162109 C224.220703,23.5039059 224.822266,24.0097652 224.822266,24.8164059 L224.822266,24.8437496 C224.822266,25.8417965 223.783203,26.4980465 222.251953,26.4980465 C220.679688,26.4980465 219.763672,25.8281246 219.449219,24.8984371 L219.421875,24.8437496 L215.498047,24.8437496 L215.511719,24.8984371 C215.798828,27.4824215 218.123047,29.3144527 222.210938,29.3144527 Z" id="plone-js" fill="#0095D3" fill-rule="nonzero"></path>
    </g>
</svg>